<svg xmlns="http://www.w3.org/2000/svg" viewBox="0 0 1200 1100"><path id="about-mask" fill="#ccc" d="M159 29.9999C174.5 26.9999 199.62 28.7099 206.5 29.9999C214.5 31.4999 218.5 32.9999 228.5 37.4999C241.76 45.4099 277.33 66.4099 295 71.9999C312.67 77.5799 328 87.4999 347.5 87.4999C373 87.4999 391.53 86.1899 408 81.9999C424.46 77.8099 482.54 61.5599 497 68.9999C511.46 76.4499 513.26 75.5099 524.5 88.9999C535.75 102.49 539.7 118.55 540.5 132.5C541.31 146.46 533.21 162.71 532 179C530.8 195.28 528.79 196.92 532 216C535.22 235.08 541.39 245.68 545 261.5C548.61 277.32 560.31 306.61 557.5 321.5C554.69 336.39 531.73 377.15 524.5 392.5C517.27 407.86 492.94 414.66 482.5 423.5C472.05 432.34 451.66 429.28 436 433C420.34 436.72 395.27 434.21 378 437C360.73 439.79 346.67 445.23 329 455C311.33 464.77 292.86 481.23 278 491C263.14 500.77 249.526 501.307 239.886 503.637C230.246 505.967 225.026 506.427 213.376 503.637C201.736 500.847 182.995 497.113 169.5 489C158.495 482.383 151.136 478.977 143.506 467.347C135.866 455.707 125.51 434.09 121.5 408.5C117.48 382.91 119.406 344 119.406 313.787C111.776 282.147 88.7201 248.34 81.5001 226C70.0001 205 58.9801 176.23 63.0001 152.5C61.0001 126.5 60.0001 109.87 86.5001 76.4999C100 59.4999 104.56 58.1999 115 47.4999C130.5 37.4999 146.584 32.403 159 29.9999Z"/></svg>
