<svg xmlns="http://www.w3.org/2000/svg" viewBox="0 0 1200 1100"><path id="na-4-body" fill="#ccc" d="M1133.92 647.504C1142.36 649.728 1159.62 652.624 1164.62 655.5C1170.26 661.751 1183.81 670.35 1191.05 681.5C1193.62 692 1193.62 707 1191.05 721C1185.62 733.5 1180.34 746.883 1177.12 762.5C1173.91 778.108 1166.62 789.285 1166.62 807.5C1166.62 822.839 1169.65 837.55 1172.46 854.5C1175.27 871.45 1179.06 887.241 1177.12 920C1176.56 925.589 1175.53 935.434 1172.46 945.5L1172.37 946.084C1170.82 955.955 1170.02 961.007 1164.62 969C1162.12 971.876 1160.13 977.248 1155.62 983C1152.12 987.469 1149.62 994.5 1143.62 998C1139.05 1000.67 1124.25 1012.81 1106.12 1013C1013.02 1013.96 1055.83 1028.59 1004.28 1030.5C996.773 1030.78 982.752 1031.46 979.749 1030.5C968.737 1030.5 942.586 1007.29 937.76 1004.62C932.935 1001.95 928.092 980.902 927.692 961.719C927.291 942.535 953.425 906.092 952.624 882C951.813 857.908 949.636 852.45 947.624 835.5C940.616 814.409 933.624 796 928.624 779C926.624 760.5 921.145 741.167 931.196 726C941.247 710.833 959.236 697.482 976.124 685C993.012 672.508 1015.23 667.633 1034.12 660.5C1053.02 653.358 1086.51 651.685 1099.38 648.569C1112.24 645.444 1125.48 645.27 1133.92 647.504Z"/></svg>
